<?xml version="1.0" standalone="no"?>
<!DOCTYPE svg PUBLIC "-//W3C//DTD SVG 20010904//EN"
 "http://www.w3.org/TR/2001/REC-SVG-20010904/DTD/svg10.dtd">
<svg version="1.0" xmlns="http://www.w3.org/2000/svg"
 width="576.000000pt" height="576.000000pt" viewBox="0 0 576.000000 576.000000"
 preserveAspectRatio="xMidYMid meet">
<metadata>
Created by potrace 1.11, written by Peter Selinger 2001-2013
</metadata>
<g transform="translate(0.000000,576.000000) scale(0.100000,-0.100000)"
fill="#000000" stroke="none">
<path d="M3418 5420 c-10 -11 -18 -26 -18 -33 0 -8 -3 -17 -7 -21 -4 -3 -8
-12 -9 -19 -1 -7 -7 -32 -15 -57 -7 -25 -13 -49 -15 -55 -4 -22 -116 -411
-121 -425 -3 -8 -7 -19 -8 -25 -10 -37 -47 -172 -65 -230 -12 -38 -23 -79 -25
-90 -3 -11 -23 -83 -46 -160 -22 -77 -47 -162 -54 -190 -7 -27 -25 -90 -40
-140 -14 -49 -28 -97 -30 -105 -2 -8 -19 -69 -38 -135 -19 -66 -42 -145 -50
-175 -8 -30 -45 -158 -82 -285 -36 -126 -73 -255 -81 -285 -8 -30 -26 -93 -40
-140 -26 -88 -27 -93 -43 -150 -5 -19 -25 -89 -44 -155 -19 -66 -37 -129 -40
-140 -3 -11 -35 -123 -72 -250 -37 -126 -68 -237 -69 -245 -1 -8 -10 -40 -19
-70 -31 -97 -35 -113 -62 -215 -14 -55 -29 -107 -32 -115 -3 -8 -7 -19 -9 -25
-2 -5 -17 -59 -34 -120 -17 -60 -40 -139 -50 -175 -33 -115 -52 -185 -54 -195
-1 -5 -4 -14 -7 -20 -4 -5 -9 -23 -13 -40 -4 -16 -15 -59 -26 -95 -24 -83 -78
-270 -96 -335 -7 -27 -14 -55 -14 -62 0 -23 42 -52 94 -64 28 -6 56 -14 61
-18 6 -3 21 -7 34 -9 14 -2 32 -7 40 -12 9 -4 37 -11 63 -15 43 -7 47 -5 64
20 10 16 19 33 20 39 1 6 18 67 39 136 20 69 38 132 40 140 1 9 19 72 39 140
21 69 39 132 41 140 9 39 77 277 82 290 3 8 8 24 10 34 2 11 22 80 44 155 22
75 42 143 44 151 6 28 136 485 142 500 3 8 7 20 8 25 2 6 8 30 16 55 7 25 13
50 15 56 3 15 150 532 179 629 21 72 44 153 51 180 1 6 19 66 39 135 20 69 38
132 40 140 8 29 64 226 105 370 23 80 50 175 60 211 10 37 20 71 23 76 3 5 8
20 11 34 3 13 18 71 35 129 16 58 48 168 70 245 21 77 46 161 54 188 8 26 13
47 10 47 -3 0 0 6 6 14 6 8 11 18 10 22 -1 5 0 16 4 24 3 8 17 58 32 110 15
52 35 124 45 160 110 384 112 389 105 409 -7 24 -31 35 -160 72 -149 43 -166
44 -187 19z"/>
<path d="M1433 4168 c-21 -18 -42 -38 -48 -44 -5 -5 -44 -39 -85 -75 -41 -35
-77 -66 -80 -69 -3 -3 -41 -37 -85 -75 -44 -39 -89 -78 -100 -88 -11 -11 -46
-42 -79 -70 -32 -29 -71 -63 -86 -77 -15 -14 -52 -46 -82 -72 -30 -26 -66 -58
-80 -70 -13 -13 -55 -50 -93 -83 -128 -112 -303 -267 -354 -314 -14 -13 -46
-40 -70 -60 -24 -20 -56 -47 -71 -61 -14 -14 -48 -44 -74 -68 -41 -37 -47 -47
-41 -70 3 -14 14 -33 24 -41 121 -105 149 -130 177 -156 18 -16 61 -55 96 -85
34 -30 85 -75 113 -100 28 -25 84 -74 125 -110 41 -36 87 -76 102 -90 34 -31
116 -103 144 -127 12 -10 54 -47 94 -83 40 -36 81 -72 90 -80 9 -8 44 -38 76
-67 32 -28 70 -61 83 -72 13 -11 55 -48 93 -83 115 -104 125 -112 149 -132 13
-11 41 -34 62 -53 53 -48 73 -44 137 29 30 33 73 81 95 106 39 43 64 79 65 95
0 10 -52 61 -120 117 -30 25 -60 49 -66 55 -6 5 -33 28 -59 50 -27 22 -53 45
-59 50 -6 6 -36 30 -66 55 -30 25 -62 52 -70 60 -9 8 -38 33 -65 55 -27 22
-58 49 -70 60 -19 18 -95 81 -149 125 -10 8 -31 26 -46 40 -16 14 -48 41 -71
60 -23 19 -53 44 -65 55 -12 11 -90 76 -172 145 -83 69 -151 127 -151 130 0 3
21 22 47 42 26 21 61 49 77 64 17 14 50 42 74 62 24 21 60 51 80 68 20 18 88
75 151 129 63 54 137 116 164 139 27 22 56 48 66 56 84 71 131 111 170 144
130 110 283 239 298 251 33 26 102 96 102 102 -1 17 -28 54 -90 124 -103 117
-127 139 -149 139 -11 0 -37 -15 -58 -32z"/>
<path d="M4190 4139 c-30 -34 -60 -67 -65 -73 -71 -78 -93 -110 -90 -128 4
-17 52 -68 100 -105 8 -7 140 -118 255 -217 14 -11 50 -41 80 -66 30 -25 62
-52 71 -60 9 -8 38 -34 65 -56 95 -80 129 -109 140 -119 7 -5 31 -26 54 -45
23 -19 53 -44 65 -55 38 -33 66 -57 160 -135 50 -41 92 -77 95 -80 3 -3 35
-31 72 -63 l68 -59 -43 -35 c-49 -41 -141 -119 -173 -148 -13 -11 -36 -30 -52
-42 -16 -12 -40 -33 -53 -45 -14 -13 -47 -41 -74 -63 -27 -22 -70 -58 -95 -80
-26 -22 -69 -59 -96 -81 -27 -23 -103 -88 -169 -144 -144 -123 -145 -123 -265
-225 -172 -145 -210 -180 -210 -192 1 -16 27 -52 85 -119 141 -160 151 -166
208 -115 17 16 41 38 53 48 55 48 148 129 158 138 6 6 70 62 141 125 72 63
146 128 165 146 19 17 60 53 91 80 30 27 84 75 120 106 35 31 73 65 85 75 12
10 50 44 85 75 35 31 75 66 88 77 12 11 55 49 95 84 39 35 96 85 126 112 30
26 86 75 124 109 136 120 135 114 31 206 -33 29 -75 66 -94 83 -19 17 -72 63
-119 104 -46 40 -90 79 -96 86 -7 7 -39 35 -71 62 -32 28 -64 55 -71 62 -6 7
-47 43 -90 80 -82 71 -88 76 -244 215 -52 46 -105 93 -118 104 -13 10 -38 33
-56 49 -18 17 -61 55 -97 86 -35 31 -86 76 -114 100 -27 24 -65 58 -84 74 -19
17 -42 37 -51 45 -60 57 -94 80 -113 80 -15 0 -41 -21 -77 -61z"/>
</g>
</svg>
